; Drill file
; Format: 3.3 (000.000)
M48
METRIC
T01C0.52
T02C0.6
T03C0.7
T04C0.72
T05C0.8
T06C1.14
T07C1.2
%
G05
G90
T01
X034410Y045210
X035810Y046480
X037210Y045210
T02
X086760Y028430
X091600Y028430
T03
X016270Y015580
X016270Y015580
X012540Y018830
X012540Y018830
X013070Y028320
X013070Y028320
X013070Y030860
X013070Y030860
X013070Y033400
X013070Y033400
X013070Y035940
X013070Y035940
X019050Y031130
X019050Y031130
X024690Y027080
X024690Y027080
X027150Y025020
X027150Y025020
X032070Y027560
X032070Y027560
X037310Y025020
X037310Y025020
X033020Y040020
X033020Y040020
X034530Y041930
X034530Y041930
X024530Y039470
X024530Y039470
X011270Y049550
X011270Y049550
X053180Y038830
X053180Y038830
X056280Y046210
X056280Y046210
X085090Y034150
X085090Y034150
X085090Y031290
X085090Y031290
X083030Y028280
X083030Y028280
T04
X025700Y029840
X028240Y029840
X030780Y029840
X033320Y029840
X033320Y037460
X030780Y037460
X028240Y037460
X025700Y037460
X028710Y044420
X028710Y046910
X046200Y046480
X046200Y042970
X085000Y021990
X087540Y021990
X090080Y021990
X092620Y021990
X092620Y014370
X090080Y014370
X087540Y014370
X085000Y014370
T05
X013070Y025780
X013070Y025780
X016910Y024540
X016910Y027080
X016910Y029620
X080010Y030180
X080010Y030180
X080010Y032720
X080010Y032720
X080010Y035260
X080010Y035260
X080010Y037800
X080010Y037800
X080010Y040340
X080010Y040340
X080010Y042880
X080010Y042880
X080010Y045420
X080010Y045420
X080010Y047960
X080010Y047960
X097790Y047960
X097790Y047960
X097790Y045420
X097790Y045420
X097790Y042880
X097790Y042880
X097790Y040340
X097790Y040340
X097790Y037800
X097790Y037800
X097790Y035260
X097790Y035260
X097790Y032720
X097790Y032720
X097790Y030180
X097790Y030180
X097160Y010160
X097160Y010160
X097160Y007620
X097160Y007620
X097160Y005080
X097160Y005080
X097160Y002540
X097160Y002540
X079380Y002540
X079380Y002540
X079380Y005080
X079380Y005080
X079380Y007620
X079380Y007620
X079380Y010160
X079380Y010160
T06
X038260Y031290
X038260Y036370
T07
X046900Y024540
X046910Y024540
X046900Y028040
X046900Y028040
X046900Y031450
X046900Y031450
X046900Y034860
X046900Y034860
X046900Y038280
X046910Y038280
M30
