%FSLAX32Y32*%
%MOMM*%
%LNBESTUECKUNG2*%
G71*
G01*
%ADD10C, 0.15*%
%ADD11C, 0.10*%
%ADD12C, 0.60*%
%LPD*%
G54D10*
X4903Y4779D02*
X4583Y4779D01*
X4583Y4099D01*
X4903Y4099D01*
X4903Y4779D01*
G54D10*
X5801Y4668D02*
X5601Y4668D01*
X5601Y4288D01*
X5801Y4288D01*
X5801Y4668D01*
G54D10*
X7000Y4748D02*
X6800Y4748D01*
X6800Y4368D01*
X7000Y4368D01*
X7000Y4748D01*
G54D10*
X7623Y4832D02*
X7403Y4832D01*
X7403Y4332D01*
X7623Y4332D01*
X7623Y4832D01*
G54D10*
X7119Y2803D02*
X6919Y2803D01*
X6919Y2423D01*
X7119Y2423D01*
X7119Y2803D01*
G54D10*
X5713Y4139D02*
X5713Y3819D01*
X6393Y3819D01*
X6393Y4139D01*
X5713Y4139D01*
G54D10*
X8422Y4021D02*
X8422Y4221D01*
X8042Y4221D01*
X8042Y4021D01*
X8422Y4021D01*
G54D10*
X8525Y4032D02*
X8525Y4352D01*
X9205Y4352D01*
X9205Y4032D01*
X8525Y4032D01*
G54D10*
X7771Y3216D02*
X7771Y3536D01*
X8451Y3536D01*
X8451Y3216D01*
X7771Y3216D01*
G54D10*
X7944Y4923D02*
X7744Y4923D01*
X7744Y4543D01*
X7944Y4543D01*
X7944Y4923D01*
G54D10*
X8237Y4923D02*
X8037Y4923D01*
X8037Y4543D01*
X8237Y4543D01*
X8237Y4923D01*
G54D10*
X7750Y3606D02*
X7950Y3606D01*
X7950Y3986D01*
X7750Y3986D01*
X7750Y3606D01*
G36*
X1507Y4102D02*
X1607Y4102D01*
X1607Y4124D01*
X1507Y4124D01*
X1507Y4102D01*
G37*
G36*
X1507Y4038D02*
X1607Y4038D01*
X1607Y4060D01*
X1507Y4060D01*
X1507Y4038D01*
G37*
G36*
X1507Y3974D02*
X1607Y3974D01*
X1607Y3996D01*
X1507Y3996D01*
X1507Y3974D01*
G37*
G36*
X1507Y3910D02*
X1607Y3910D01*
X1607Y3932D01*
X1507Y3932D01*
X1507Y3910D01*
G37*
G36*
X1507Y3846D02*
X1607Y3846D01*
X1607Y3868D01*
X1507Y3868D01*
X1507Y3846D01*
G37*
G36*
X1507Y3782D02*
X1607Y3782D01*
X1607Y3804D01*
X1507Y3804D01*
X1507Y3782D01*
G37*
G36*
X967Y4102D02*
X1067Y4102D01*
X1067Y4124D01*
X967Y4124D01*
X967Y4102D01*
G37*
G36*
X967Y4038D02*
X1067Y4038D01*
X1067Y4060D01*
X967Y4060D01*
X967Y4038D01*
G37*
G36*
X967Y3974D02*
X1067Y3974D01*
X1067Y3996D01*
X967Y3996D01*
X967Y3974D01*
G37*
G36*
X967Y3910D02*
X1067Y3910D01*
X1067Y3932D01*
X967Y3932D01*
X967Y3910D01*
G37*
G36*
X967Y3846D02*
X1067Y3846D01*
X1067Y3868D01*
X967Y3868D01*
X967Y3846D01*
G37*
G36*
X967Y3782D02*
X1067Y3782D01*
X1067Y3804D01*
X967Y3804D01*
X967Y3782D01*
G37*
G54D11*
X1509Y4145D02*
X1065Y4145D01*
X1065Y3637D01*
X1509Y3637D01*
X1509Y4145D01*
X1445Y4081D02*
G54D12*
D03*
G36*
X1507Y3656D02*
X1607Y3656D01*
X1607Y3678D01*
X1507Y3678D01*
X1507Y3656D01*
G37*
G36*
X1507Y3720D02*
X1607Y3720D01*
X1607Y3742D01*
X1507Y3742D01*
X1507Y3720D01*
G37*
G36*
X967Y3656D02*
X1067Y3656D01*
X1067Y3678D01*
X967Y3678D01*
X967Y3656D01*
G37*
G36*
X967Y3720D02*
X1067Y3720D01*
X1067Y3742D01*
X967Y3742D01*
X967Y3720D01*
G37*
G54D11*
X2113Y4923D02*
X2176Y4860D01*
X2176Y4732D01*
X2113Y4669D01*
X1985Y4669D01*
X1922Y4732D01*
X1922Y4860D01*
X1985Y4923D01*
X2113Y4923D01*
G54D11*
X2113Y4669D02*
X2176Y4606D01*
X2176Y4478D01*
X2113Y4415D01*
X1985Y4415D01*
X1922Y4478D01*
X1922Y4606D01*
X1985Y4669D01*
X2113Y4669D01*
G54D11*
X2113Y4415D02*
X2176Y4352D01*
X2176Y4224D01*
X2113Y4161D01*
X1985Y4161D01*
X1922Y4224D01*
X1922Y4352D01*
X1985Y4415D01*
X2113Y4415D01*
G54D11*
X2113Y4161D02*
X2176Y4098D01*
X2176Y3970D01*
X2113Y3907D01*
X1985Y3907D01*
X1922Y3970D01*
X1922Y4098D01*
X1985Y4161D01*
X2113Y4161D01*
G54D11*
X2113Y3907D02*
X2176Y3844D01*
X2176Y3716D01*
X2113Y3653D01*
X1985Y3653D01*
X1922Y3716D01*
X1922Y3844D01*
X1985Y3907D01*
X2113Y3907D01*
G54D11*
X2113Y3653D02*
X2176Y3590D01*
X2176Y3462D01*
X2113Y3399D01*
X1985Y3399D01*
X1922Y3462D01*
X1922Y3590D01*
X1985Y3653D01*
X2113Y3653D01*
G54D11*
X2113Y3399D02*
X2176Y3336D01*
X2176Y3208D01*
X2113Y3145D01*
X1985Y3145D01*
X1922Y3208D01*
X1922Y3336D01*
X1985Y3399D01*
X2113Y3399D01*
G54D11*
X2113Y3145D02*
X2176Y3082D01*
X2176Y2954D01*
X2113Y2891D01*
X1985Y2891D01*
X1922Y2954D01*
X1922Y3082D01*
X1985Y3145D01*
X2113Y3145D01*
G54D11*
X335Y4923D02*
X398Y4860D01*
X398Y4732D01*
X335Y4669D01*
X207Y4669D01*
X144Y4732D01*
X144Y4860D01*
X207Y4923D01*
X335Y4923D01*
G54D11*
X335Y4669D02*
X398Y4606D01*
X398Y4478D01*
X335Y4415D01*
X207Y4415D01*
X144Y4478D01*
X144Y4606D01*
X207Y4669D01*
X335Y4669D01*
G54D11*
X335Y4415D02*
X398Y4352D01*
X398Y4224D01*
X335Y4161D01*
X207Y4161D01*
X144Y4224D01*
X144Y4352D01*
X207Y4415D01*
X335Y4415D01*
G54D11*
X335Y4161D02*
X398Y4098D01*
X398Y3970D01*
X335Y3907D01*
X207Y3907D01*
X144Y3970D01*
X144Y4098D01*
X207Y4161D01*
X335Y4161D01*
G54D11*
X335Y3907D02*
X398Y3844D01*
X398Y3716D01*
X335Y3653D01*
X207Y3653D01*
X144Y3716D01*
X144Y3844D01*
X207Y3907D01*
X335Y3907D01*
G54D11*
X335Y3653D02*
X398Y3590D01*
X398Y3462D01*
X335Y3399D01*
X207Y3399D01*
X144Y3462D01*
X144Y3590D01*
X207Y3653D01*
X335Y3653D01*
G54D11*
X335Y3399D02*
X398Y3336D01*
X398Y3208D01*
X335Y3145D01*
X207Y3145D01*
X144Y3208D01*
X144Y3336D01*
X207Y3399D01*
X335Y3399D01*
G54D11*
X335Y3145D02*
X398Y3082D01*
X398Y2954D01*
X335Y2891D01*
X207Y2891D01*
X144Y2954D01*
X144Y3082D01*
X207Y3145D01*
X335Y3145D01*
G54D11*
X2176Y1143D02*
X2240Y1080D01*
X2240Y952D01*
X2176Y889D01*
X2048Y889D01*
X1986Y952D01*
X1986Y1080D01*
X2048Y1143D01*
X2176Y1143D01*
G54D11*
X2176Y889D02*
X2240Y826D01*
X2240Y698D01*
X2176Y635D01*
X2048Y635D01*
X1986Y698D01*
X1986Y826D01*
X2048Y889D01*
X2176Y889D01*
G54D11*
X2176Y635D02*
X2240Y572D01*
X2240Y444D01*
X2176Y381D01*
X2048Y381D01*
X1986Y444D01*
X1986Y572D01*
X2048Y635D01*
X2176Y635D01*
G54D11*
X2176Y381D02*
X2240Y318D01*
X2240Y190D01*
X2176Y127D01*
X2048Y127D01*
X1986Y190D01*
X1986Y318D01*
X2048Y381D01*
X2176Y381D01*
G54D11*
X398Y1143D02*
X462Y1080D01*
X462Y952D01*
X398Y889D01*
X270Y889D01*
X208Y952D01*
X208Y1080D01*
X270Y1143D01*
X398Y1143D01*
G54D11*
X398Y889D02*
X462Y826D01*
X462Y698D01*
X398Y635D01*
X270Y635D01*
X208Y698D01*
X208Y826D01*
X270Y889D01*
X398Y889D01*
G54D11*
X398Y635D02*
X462Y572D01*
X462Y444D01*
X398Y381D01*
X270Y381D01*
X208Y444D01*
X208Y572D01*
X270Y635D01*
X398Y635D01*
G54D11*
X398Y381D02*
X462Y318D01*
X462Y190D01*
X398Y127D01*
X270Y127D01*
X208Y190D01*
X208Y318D01*
X270Y381D01*
X398Y381D01*
G54D11*
X833Y3065D02*
X1436Y3065D01*
G54D11*
X834Y2621D02*
X1437Y2621D01*
G54D11*
G75*
G01X835Y3065D02*
G03X835Y2621I0J-222D01*
G01*
G54D11*
G75*
G01X1436Y2621D02*
G03X1436Y3065I0J222D01*
G01*
G54D10*
X546Y3392D02*
X546Y3092D01*
X1364Y3092D01*
X1364Y3392D01*
X546Y3392D01*
G54D10*
X437Y3090D02*
X437Y3242D01*
G54D10*
X361Y3166D02*
X513Y3166D01*
G54D10*
X1677Y2072D02*
X1677Y1564D01*
X661Y1564D01*
X661Y2072D01*
X1677Y2072D01*
G54D10*
X1677Y1945D02*
X1677Y1691D01*
X1550Y1691D01*
X1550Y1945D01*
X1677Y1945D01*
M02*
