%FSLAX32Y32*%
%MOMM*%
%LNLOETSTOP2*%
G71*
G01*
%ADD10C, 2.00*%
%ADD11C, 2.24*%
%ADD12C, 2.10*%
%ADD13C, 2.10*%
%ADD14C, 3.00*%
%ADD15C, 1.88*%
%ADD16C, 2.50*%
%ADD17C, 2.60*%
%LPD*%
G36*
X6618Y3646D02*
X6818Y3646D01*
X6818Y3846D01*
X6618Y3846D01*
X6618Y3646D01*
G37*
X6972Y3746D02*
G54D10*
D03*
X7226Y3746D02*
G54D10*
D03*
X7480Y3746D02*
G54D10*
D03*
X7480Y2984D02*
G54D10*
D03*
X7226Y2984D02*
G54D10*
D03*
X6972Y2984D02*
G54D10*
D03*
X6718Y2984D02*
G54D10*
D03*
X7179Y4691D02*
G54D11*
D03*
X7179Y4442D02*
G54D11*
D03*
X5430Y4648D02*
G54D11*
D03*
X5430Y4297D02*
G54D11*
D03*
X8743Y3594D02*
G54D12*
D03*
X8743Y3340D02*
G54D12*
D03*
X8743Y3086D02*
G54D12*
D03*
X8743Y2832D02*
G54D12*
D03*
G36*
X9358Y2895D02*
X9358Y2705D01*
X9778Y2705D01*
X9778Y2895D01*
X9358Y2895D01*
G37*
G36*
X8882Y3165D02*
X8882Y2975D01*
X9302Y2975D01*
X9302Y3165D01*
X8882Y3165D01*
G37*
G36*
X8882Y3451D02*
X8882Y3261D01*
X9302Y3261D01*
X9302Y3451D01*
X8882Y3451D01*
G37*
G36*
X9358Y3729D02*
X9358Y3539D01*
X9778Y3539D01*
X9778Y3729D01*
X9358Y3729D01*
G37*
X8743Y2578D02*
G54D13*
D03*
G36*
X8874Y2657D02*
X8874Y2467D01*
X9294Y2467D01*
X9294Y2657D01*
X8874Y2657D01*
G37*
X5360Y3486D02*
G54D14*
D03*
X5360Y3145D02*
G54D14*
D03*
X5360Y2804D02*
G54D14*
D03*
X5360Y2454D02*
G54D14*
D03*
X5360Y3828D02*
G54D14*
D03*
X6609Y4521D02*
G54D15*
D03*
X6469Y4648D02*
G54D15*
D03*
X6329Y4521D02*
G54D15*
D03*
G36*
X4603Y4759D02*
X4603Y4559D01*
X4883Y4559D01*
X4883Y4759D01*
X4603Y4759D01*
G37*
G36*
X4603Y4319D02*
X4603Y4119D01*
X4883Y4119D01*
X4883Y4319D01*
X4603Y4319D01*
G37*
X4732Y3883D02*
G54D12*
D03*
X4422Y4621D02*
G54D12*
D03*
G36*
X5621Y4648D02*
X5621Y4498D01*
X5781Y4498D01*
X5781Y4648D01*
X5621Y4648D01*
G37*
G36*
X5621Y4458D02*
X5621Y4308D01*
X5781Y4308D01*
X5781Y4458D01*
X5621Y4458D01*
G37*
G36*
X6820Y4728D02*
X6820Y4578D01*
X6980Y4578D01*
X6980Y4728D01*
X6820Y4728D01*
G37*
G36*
X6820Y4538D02*
X6820Y4388D01*
X6980Y4388D01*
X6980Y4538D01*
X6820Y4538D01*
G37*
G36*
X7423Y4812D02*
X7423Y4632D01*
X7603Y4632D01*
X7603Y4812D01*
X7423Y4812D01*
G37*
G36*
X7423Y4532D02*
X7423Y4352D01*
X7603Y4352D01*
X7603Y4532D01*
X7423Y4532D01*
G37*
X6224Y3637D02*
G54D16*
D03*
X6224Y3129D02*
G54D16*
D03*
X6319Y2502D02*
G54D12*
D03*
X7335Y2502D02*
G54D12*
D03*
X7581Y2708D02*
G54D12*
D03*
X6843Y2756D02*
G54D12*
D03*
G36*
X6939Y2783D02*
X6939Y2633D01*
X7099Y2633D01*
X7099Y2783D01*
X6939Y2783D01*
G37*
G36*
X6939Y2593D02*
X6939Y2443D01*
X7099Y2443D01*
X7099Y2593D01*
X6939Y2593D01*
G37*
X6748Y4002D02*
G54D12*
D03*
G36*
X5733Y3839D02*
X5933Y3839D01*
X5933Y4119D01*
X5733Y4119D01*
X5733Y3839D01*
G37*
G36*
X6173Y3839D02*
X6373Y3839D01*
X6373Y4119D01*
X6173Y4119D01*
X6173Y3839D01*
G37*
X8796Y1883D02*
G54D12*
D03*
X8359Y2962D02*
G54D17*
D03*
X8359Y2708D02*
G54D17*
D03*
X8359Y2454D02*
G54D17*
D03*
X8423Y1558D02*
G54D12*
D03*
G36*
X8402Y4201D02*
X8252Y4201D01*
X8252Y4041D01*
X8402Y4041D01*
X8402Y4201D01*
G37*
G36*
X8212Y4201D02*
X8062Y4201D01*
X8062Y4041D01*
X8212Y4041D01*
X8212Y4201D01*
G37*
X8923Y4955D02*
G54D12*
D03*
G36*
X8545Y4052D02*
X8745Y4052D01*
X8745Y4332D01*
X8545Y4332D01*
X8545Y4052D01*
G37*
G36*
X8985Y4052D02*
X9185Y4052D01*
X9185Y4332D01*
X8985Y4332D01*
X8985Y4052D01*
G37*
G36*
X7791Y3236D02*
X7991Y3236D01*
X7991Y3516D01*
X7791Y3516D01*
X7791Y3236D01*
G37*
G36*
X8231Y3236D02*
X8431Y3236D01*
X8431Y3516D01*
X8231Y3516D01*
X8231Y3236D01*
G37*
G36*
X7764Y4903D02*
X7764Y4753D01*
X7924Y4753D01*
X7924Y4903D01*
X7764Y4903D01*
G37*
G36*
X7764Y4713D02*
X7764Y4563D01*
X7924Y4563D01*
X7924Y4713D01*
X7764Y4713D01*
G37*
G36*
X8057Y4903D02*
X8057Y4753D01*
X8217Y4753D01*
X8217Y4903D01*
X8057Y4903D01*
G37*
G36*
X8057Y4713D02*
X8057Y4563D01*
X8217Y4563D01*
X8217Y4713D01*
X8057Y4713D01*
G37*
G36*
X7930Y3626D02*
X7930Y3776D01*
X7770Y3776D01*
X7770Y3626D01*
X7930Y3626D01*
G37*
G36*
X7930Y3816D02*
X7930Y3966D01*
X7770Y3966D01*
X7770Y3816D01*
X7930Y3816D01*
G37*
X7597Y3947D02*
G54D12*
D03*
X6597Y4193D02*
G54D12*
D03*
X8145Y3113D02*
G54D12*
D03*
X271Y4796D02*
G54D17*
D03*
X271Y4542D02*
G54D17*
D03*
X271Y4288D02*
G54D17*
D03*
X271Y4034D02*
G54D17*
D03*
X271Y3780D02*
G54D17*
D03*
X271Y3526D02*
G54D17*
D03*
X271Y3272D02*
G54D17*
D03*
X271Y3018D02*
G54D17*
D03*
X2049Y4796D02*
G54D17*
D03*
X2049Y4542D02*
G54D17*
D03*
X2049Y4288D02*
G54D17*
D03*
X2049Y4034D02*
G54D17*
D03*
X2049Y3780D02*
G54D17*
D03*
X2049Y3526D02*
G54D17*
D03*
X2049Y3272D02*
G54D17*
D03*
X2049Y3018D02*
G54D17*
D03*
X334Y1016D02*
G54D17*
D03*
X334Y762D02*
G54D17*
D03*
X334Y508D02*
G54D17*
D03*
X334Y254D02*
G54D17*
D03*
X2112Y1016D02*
G54D17*
D03*
X2112Y762D02*
G54D17*
D03*
X2112Y508D02*
G54D17*
D03*
X2112Y254D02*
G54D17*
D03*
G36*
X582Y3093D02*
X800Y3093D01*
X800Y3392D01*
X582Y3392D01*
X582Y3093D01*
G37*
G36*
X1110Y3093D02*
X1328Y3093D01*
X1328Y3392D01*
X1110Y3392D01*
X1110Y3093D01*
G37*
X1747Y2828D02*
G54D12*
D03*
X1541Y3129D02*
G54D12*
D03*
X1541Y3415D02*
G54D12*
D03*
M02*
