%FSLAX32Y32*%
%MOMM*%
%LNKUPFERSEITE2*%
G71*
G01*
%ADD10C, 1.40*%
%ADD11C, 1.64*%
%ADD12C, 1.50*%
%ADD13C, 0.70*%
%ADD14C, 1.50*%
%ADD15C, 2.40*%
%ADD16C, 1.28*%
%ADD17C, 1.00*%
%ADD18C, 1.90*%
%ADD19C, 0.60*%
%ADD20C, 0.50*%
%ADD21C, 2.00*%
%ADD22C, 0.10*%
%ADD23C, 0.30*%
%LPD*%
G36*
X6648Y3676D02*
X6788Y3676D01*
X6788Y3816D01*
X6648Y3816D01*
X6648Y3676D01*
G37*
X6972Y3746D02*
G54D10*
D03*
X7226Y3746D02*
G54D10*
D03*
X7480Y3746D02*
G54D10*
D03*
X7480Y2984D02*
G54D10*
D03*
X7226Y2984D02*
G54D10*
D03*
X6972Y2984D02*
G54D10*
D03*
X6718Y2984D02*
G54D10*
D03*
X7179Y4691D02*
G54D11*
D03*
X7179Y4442D02*
G54D11*
D03*
X5430Y4648D02*
G54D11*
D03*
X5430Y4297D02*
G54D11*
D03*
X8743Y3594D02*
G54D12*
D03*
X8743Y3340D02*
G54D12*
D03*
X8743Y3086D02*
G54D12*
D03*
X8743Y2832D02*
G54D12*
D03*
G36*
X9368Y2885D02*
X9368Y2715D01*
X9768Y2715D01*
X9768Y2885D01*
X9368Y2885D01*
G37*
G36*
X8892Y3155D02*
X8892Y2985D01*
X9292Y2985D01*
X9292Y3155D01*
X8892Y3155D01*
G37*
G36*
X8892Y3441D02*
X8892Y3271D01*
X9292Y3271D01*
X9292Y3441D01*
X8892Y3441D01*
G37*
G36*
X9368Y3719D02*
X9368Y3549D01*
X9768Y3549D01*
X9768Y3719D01*
X9368Y3719D01*
G37*
G54D13*
X8743Y2832D02*
X9410Y2832D01*
G54D13*
X8743Y3594D02*
X9410Y3594D01*
G54D13*
X8743Y3348D02*
X8973Y3348D01*
G54D13*
X8743Y3094D02*
X8941Y3094D01*
X8743Y2578D02*
G54D14*
D03*
G36*
X8884Y2647D02*
X8884Y2477D01*
X9284Y2477D01*
X9284Y2647D01*
X8884Y2647D01*
G37*
G54D13*
X8743Y2578D02*
X8933Y2578D01*
X5360Y3486D02*
G54D15*
D03*
X5360Y3145D02*
G54D15*
D03*
X5360Y2804D02*
G54D15*
D03*
X5360Y2454D02*
G54D15*
D03*
X5360Y3828D02*
G54D15*
D03*
X6609Y4521D02*
G54D16*
D03*
X6469Y4648D02*
G54D16*
D03*
X6329Y4521D02*
G54D16*
D03*
G54D17*
X5430Y4304D02*
X5216Y4304D01*
X4938Y4582D01*
G54D17*
X5359Y3486D02*
X4938Y3486D01*
X4724Y3701D01*
X4724Y4193D01*
X4732Y4201D01*
G36*
X4613Y4749D02*
X4613Y4569D01*
X4873Y4569D01*
X4873Y4749D01*
X4613Y4749D01*
G37*
G36*
X4613Y4309D02*
X4613Y4129D01*
X4873Y4129D01*
X4873Y4309D01*
X4613Y4309D01*
G37*
X4732Y3883D02*
G54D12*
D03*
G54D17*
X4938Y4582D02*
X4891Y4629D01*
X4803Y4629D01*
X4795Y4621D01*
G54D17*
X4875Y4637D02*
X4430Y4637D01*
X4422Y4621D02*
G54D12*
D03*
G36*
X5631Y4638D02*
X5631Y4508D01*
X5771Y4508D01*
X5771Y4638D01*
X5631Y4638D01*
G37*
G36*
X5631Y4448D02*
X5631Y4318D01*
X5771Y4318D01*
X5771Y4448D01*
X5631Y4448D01*
G37*
G54D13*
X5430Y4645D02*
X5645Y4645D01*
X5700Y4590D01*
G54D13*
X5430Y4304D02*
X5645Y4304D01*
X5684Y4344D01*
G54D13*
X6319Y4518D02*
X6121Y4518D01*
X5907Y4304D01*
X5430Y4304D01*
G54D17*
X5367Y2804D02*
X4645Y2804D01*
X4232Y3216D01*
X4025Y3423D01*
X4025Y4550D01*
G54D17*
X5446Y4969D02*
X7280Y4971D01*
G54D17*
X5430Y4645D02*
X5430Y4963D01*
G36*
X6830Y4718D02*
X6830Y4588D01*
X6970Y4588D01*
X6970Y4718D01*
X6830Y4718D01*
G37*
G36*
X6830Y4528D02*
X6830Y4398D01*
X6970Y4398D01*
X6970Y4528D01*
X6830Y4528D01*
G37*
G54D13*
X7177Y4693D02*
X7177Y4979D01*
G54D13*
X6899Y4661D02*
X6899Y4979D01*
G54D13*
X6613Y4518D02*
X6677Y4455D01*
X7169Y4455D01*
X7177Y4447D01*
G36*
X7433Y4802D02*
X7433Y4642D01*
X7593Y4642D01*
X7593Y4802D01*
X7433Y4802D01*
G37*
G36*
X7433Y4522D02*
X7433Y4362D01*
X7593Y4362D01*
X7593Y4522D01*
X7433Y4522D01*
G37*
G54D13*
X7510Y4725D02*
X7510Y4979D01*
X7510Y4740D01*
X7518Y4732D01*
G54D13*
X7510Y4447D02*
X7177Y4447D01*
X7169Y4439D01*
X6224Y3637D02*
G54D18*
D03*
X6224Y3129D02*
G54D18*
D03*
G54D13*
X6208Y3637D02*
X6613Y3637D01*
X6716Y3740D01*
G54D13*
X6724Y2970D02*
X6724Y3010D01*
X6613Y3121D01*
X6232Y3121D01*
G54D13*
X7192Y4423D02*
X7192Y4232D01*
X7105Y4145D01*
X6883Y4145D01*
X6732Y3994D01*
X6732Y3796D01*
X6692Y3756D01*
X6319Y2502D02*
G54D12*
D03*
X7335Y2502D02*
G54D12*
D03*
G54D17*
X7335Y2502D02*
X6311Y2502D01*
X5891Y2502D01*
X5589Y2804D01*
X5367Y2804D01*
X5359Y2812D01*
X7581Y2708D02*
G54D12*
D03*
G54D13*
X7478Y2978D02*
X7478Y2820D01*
X7581Y2716D01*
X6843Y2756D02*
G54D12*
D03*
G54D19*
X7224Y2986D02*
X7224Y2883D01*
X7105Y2764D01*
X6867Y2764D01*
X6859Y2772D01*
G36*
X6949Y2773D02*
X6949Y2643D01*
X7089Y2643D01*
X7089Y2773D01*
X6949Y2773D01*
G37*
G36*
X6949Y2583D02*
X6949Y2453D01*
X7089Y2453D01*
X7089Y2583D01*
X6949Y2583D01*
G37*
X6748Y4002D02*
G54D12*
D03*
G36*
X5743Y3849D02*
X5923Y3849D01*
X5923Y4109D01*
X5743Y4109D01*
X5743Y3849D01*
G37*
G36*
X6183Y3849D02*
X6363Y3849D01*
X6363Y4109D01*
X6183Y4109D01*
X6183Y3849D01*
G37*
G54D13*
X5367Y3828D02*
X5629Y3828D01*
X5788Y3986D01*
G54D13*
X6272Y3986D02*
X6740Y3986D01*
X6748Y3994D01*
G54D17*
X6224Y3129D02*
X6224Y2526D01*
X8796Y1883D02*
G54D12*
D03*
G54D20*
X9026Y2232D02*
X9026Y2534D01*
X8994Y2566D01*
G54D20*
X9026Y2232D02*
X9026Y2113D01*
X8796Y1883D01*
X8359Y2962D02*
G54D21*
D03*
X8359Y2708D02*
G54D21*
D03*
X8359Y2454D02*
G54D21*
D03*
G54D13*
X8367Y2161D02*
X8367Y2391D01*
X8359Y2399D01*
X8423Y1558D02*
G54D12*
D03*
G54D13*
X8423Y1558D02*
X8423Y2097D01*
X8367Y2153D01*
G54D19*
X8351Y2708D02*
X7962Y2708D01*
X7812Y2859D01*
X7812Y2986D01*
X7502Y3296D01*
X7343Y3296D01*
X7232Y3407D01*
G36*
X8392Y4191D02*
X8262Y4191D01*
X8262Y4051D01*
X8392Y4051D01*
X8392Y4191D01*
G37*
G36*
X8202Y4191D02*
X8072Y4191D01*
X8072Y4051D01*
X8202Y4051D01*
X8202Y4191D01*
G37*
X8923Y4955D02*
G54D12*
D03*
G36*
X8555Y4062D02*
X8735Y4062D01*
X8735Y4322D01*
X8555Y4322D01*
X8555Y4062D01*
G37*
G36*
X8995Y4062D02*
X9175Y4062D01*
X9175Y4322D01*
X8995Y4322D01*
X8995Y4062D01*
G37*
G36*
X7801Y3246D02*
X7981Y3246D01*
X7981Y3506D01*
X7801Y3506D01*
X7801Y3246D01*
G37*
G36*
X8241Y3246D02*
X8421Y3246D01*
X8421Y3506D01*
X8241Y3506D01*
X8241Y3246D01*
G37*
G54D19*
X7232Y3407D02*
X7042Y3407D01*
X6962Y3486D01*
X6962Y3732D01*
X6970Y3740D01*
G54D19*
X8637Y4137D02*
X8351Y4137D01*
X8328Y4113D01*
G54D19*
X8121Y4121D02*
X7431Y4121D01*
X7224Y3915D01*
X7224Y3772D01*
X7232Y3764D01*
G54D19*
X9090Y4161D02*
X9090Y3605D01*
G36*
X7774Y4893D02*
X7774Y4763D01*
X7914Y4763D01*
X7914Y4893D01*
X7774Y4893D01*
G37*
G36*
X7774Y4703D02*
X7774Y4573D01*
X7914Y4573D01*
X7914Y4703D01*
X7774Y4703D01*
G37*
G36*
X8067Y4893D02*
X8067Y4763D01*
X8207Y4763D01*
X8207Y4893D01*
X8067Y4893D01*
G37*
G36*
X8067Y4703D02*
X8067Y4573D01*
X8207Y4573D01*
X8207Y4703D01*
X8067Y4703D01*
G37*
G54D19*
X7843Y4836D02*
X7843Y4971D01*
G54D19*
X8137Y4836D02*
X8137Y4971D01*
X8129Y4979D01*
G54D19*
X7843Y4645D02*
X7843Y4129D01*
G36*
X7920Y3636D02*
X7920Y3766D01*
X7780Y3766D01*
X7780Y3636D01*
X7920Y3636D01*
G37*
G36*
X7920Y3826D02*
X7920Y3956D01*
X7780Y3956D01*
X7780Y3826D01*
X7920Y3826D01*
G37*
G54D20*
X7478Y3748D02*
X7621Y3891D01*
X7828Y3891D01*
X7835Y3883D01*
G54D20*
X7851Y3693D02*
X7851Y3518D01*
X7907Y3462D01*
G54D13*
X8328Y3359D02*
X8732Y3359D01*
X8748Y3343D01*
G54D20*
X7843Y3891D02*
X7962Y3891D01*
X8137Y3716D01*
X8534Y3716D01*
X8645Y3828D01*
X8804Y3828D01*
X8867Y3891D01*
X8867Y4415D01*
X8788Y4494D01*
X8264Y4494D01*
X8145Y4613D01*
X7597Y3947D02*
G54D12*
D03*
G54D19*
X6978Y2994D02*
X6978Y3121D01*
X6716Y3383D01*
X6057Y3383D01*
X5962Y3478D01*
X5962Y3709D01*
X6034Y3780D01*
X6034Y4161D01*
X6137Y4264D01*
X6542Y4264D01*
X6605Y4201D01*
X6597Y4193D02*
G54D12*
D03*
X8145Y3113D02*
G54D12*
D03*
G54D13*
X8367Y2962D02*
X8296Y2962D01*
X8153Y3105D01*
G54D13*
X6470Y4645D02*
X6470Y4955D01*
X6478Y4963D01*
G54D17*
X4025Y4550D02*
X4025Y4582D01*
X4391Y4947D01*
X5414Y4947D01*
X5438Y4971D01*
G54D17*
X7280Y4971D02*
X8931Y4971D01*
X271Y4796D02*
G54D21*
D03*
X271Y4542D02*
G54D21*
D03*
X271Y4288D02*
G54D21*
D03*
X271Y4034D02*
G54D21*
D03*
X271Y3780D02*
G54D21*
D03*
X271Y3526D02*
G54D21*
D03*
X271Y3272D02*
G54D21*
D03*
X271Y3018D02*
G54D21*
D03*
X2049Y4796D02*
G54D21*
D03*
X2049Y4542D02*
G54D21*
D03*
X2049Y4288D02*
G54D21*
D03*
X2049Y4034D02*
G54D21*
D03*
X2049Y3780D02*
G54D21*
D03*
X2049Y3526D02*
G54D21*
D03*
X2049Y3272D02*
G54D21*
D03*
X2049Y3018D02*
G54D21*
D03*
X334Y1016D02*
G54D21*
D03*
X334Y762D02*
G54D21*
D03*
X334Y508D02*
G54D21*
D03*
X334Y254D02*
G54D21*
D03*
X2112Y1016D02*
G54D21*
D03*
X2112Y762D02*
G54D21*
D03*
X2112Y508D02*
G54D21*
D03*
X2112Y254D02*
G54D21*
D03*
G36*
X592Y3103D02*
X790Y3103D01*
X790Y3382D01*
X592Y3382D01*
X592Y3103D01*
G37*
G36*
X1120Y3103D02*
X1318Y3103D01*
X1318Y3382D01*
X1120Y3382D01*
X1120Y3103D01*
G37*
X1747Y2828D02*
G54D12*
D03*
X1541Y3129D02*
G54D12*
D03*
X1541Y3415D02*
G54D12*
D03*
G54D20*
X1216Y3232D02*
X1446Y3232D01*
X1533Y3145D01*
G54D20*
X1541Y3431D02*
X1438Y3534D01*
X898Y3534D01*
X708Y3343D01*
G36*
X1716Y4193D02*
X1716Y3637D01*
X1692Y3613D01*
X1573Y3613D01*
X1549Y3637D01*
X819Y3637D01*
X668Y3486D01*
X319Y3486D01*
X319Y3590D01*
X295Y3613D01*
X446Y3613D01*
X517Y3685D01*
X517Y4336D01*
X327Y4526D01*
X327Y4598D01*
X398Y4598D01*
X493Y4693D01*
X1573Y4693D01*
X1716Y4550D01*
X1716Y4169D01*
X1716Y4193D01*
G37*
G54D22*
X1716Y4193D02*
X1716Y3637D01*
X1692Y3613D01*
X1573Y3613D01*
X1549Y3637D01*
X819Y3637D01*
X668Y3486D01*
X319Y3486D01*
X319Y3590D01*
X295Y3613D01*
X446Y3613D01*
X517Y3685D01*
X517Y4336D01*
X327Y4526D01*
X327Y4598D01*
X398Y4598D01*
X493Y4693D01*
X1573Y4693D01*
X1716Y4550D01*
X1716Y4169D01*
X1716Y4193D01*
G36*
X1708Y3716D02*
X1716Y3716D01*
X1827Y3605D01*
X1827Y2899D01*
X1771Y2843D01*
X1700Y2843D01*
X1700Y2962D01*
X1565Y3097D01*
X1565Y3121D01*
X1692Y3248D01*
X1692Y3343D01*
X1724Y3375D01*
X1724Y3486D01*
X1668Y3542D01*
X1668Y3661D01*
X1724Y3716D01*
X1708Y3716D01*
G37*
G54D22*
X1708Y3716D02*
X1716Y3716D01*
X1827Y3605D01*
X1827Y2899D01*
X1771Y2843D01*
X1700Y2843D01*
X1700Y2962D01*
X1565Y3097D01*
X1565Y3121D01*
X1692Y3248D01*
X1692Y3343D01*
X1724Y3375D01*
X1724Y3486D01*
X1668Y3542D01*
X1668Y3661D01*
X1724Y3716D01*
X1708Y3716D01*
G54D23*
X279Y4796D02*
X454Y4796D01*
X493Y4756D01*
X1763Y4756D01*
X1803Y4796D01*
X1803Y4812D01*
X1771Y4844D01*
X509Y4844D01*
X469Y4883D01*
X501Y4915D01*
X1771Y4915D01*
X1803Y4947D01*
X1803Y4955D01*
X1771Y4986D01*
X477Y4986D01*
M02*
